<?xml version="1.0" encoding="UTF-8" standalone="no"?>
<!-- Created with Inkscape (http://www.inkscape.org/) -->

<svg
   xmlns:dc="http://purl.org/dc/elements/1.1/"
   xmlns:cc="http://creativecommons.org/ns#"
   xmlns:rdf="http://www.w3.org/1999/02/22-rdf-syntax-ns#"
   xmlns:svg="http://www.w3.org/2000/svg"
   xmlns="http://www.w3.org/2000/svg"
   xmlns:sodipodi="http://sodipodi.sourceforge.net/DTD/sodipodi-0.dtd"
   xmlns:inkscape="http://www.inkscape.org/namespaces/inkscape"
   width="216.91125"
   height="40.934029"
   id="svg2"
   version="1.1"
   inkscape:version="0.48.2 r9819"
   sodipodi:docname="banner_mockup_02.svg">
  <defs
     id="defs4" />
  <sodipodi:namedview
     id="base"
     pagecolor="#ffffff"
     bordercolor="#666666"
     borderopacity="1.0"
     inkscape:pageopacity="0.0"
     inkscape:pageshadow="2"
     inkscape:zoom="2.8284271"
     inkscape:cx="108.96097"
     inkscape:cy="44.803378"
     inkscape:document-units="px"
     inkscape:current-layer="layer1"
     showgrid="false"
     inkscape:window-width="1280"
     inkscape:window-height="752"
     inkscape:window-x="0"
     inkscape:window-y="0"
     inkscape:window-maximized="0"
     fit-margin-top="0"
     fit-margin-left="0"
     fit-margin-right="0"
     fit-margin-bottom="0" />
  <metadata
     id="metadata7">
    <rdf:RDF>
      <cc:Work
         rdf:about="">
        <dc:format>image/svg+xml</dc:format>
        <dc:type
           rdf:resource="http://purl.org/dc/dcmitype/StillImage" />
        <dc:title />
      </cc:Work>
    </rdf:RDF>
  </metadata>
  <g
     inkscape:label="Layer 1"
     inkscape:groupmode="layer"
     id="layer1"
     transform="translate(-166.13715,-420.47959)">
    <g
       style="font-size:40px;font-style:normal;font-weight:normal;line-height:125%;letter-spacing:0px;word-spacing:0px;fill:#000000;fill-opacity:1;stroke:none;font-family:Sans"
       id="text2985">
      <path
         d="m 166.13715,460.93362 2.72,0 0,-9.52 c 0,-0.91999 0.08,-1.84 0.28,-2.68 0.84,-3.07999 3.32,-5.92 6.6,-5.92 3.79999,0 4.24,2.96001 4.24,6 l 0,12.12 2.72,0 0,-9.52 c 0,-1.07999 0.08,-2.04 0.36,-2.92 0.76,-2.95999 3.28,-5.68 6.36,-5.68 3.67999,0 4.36,2.72001 4.36,6 l 0,12.12 2.72,0 0,-12.8 c 0,-4.95999 -1.80001,-7.8 -6.68,-7.8 -3.4,0 -6.32,2.32001 -7.4,5.04 l -0.08,0 c -0.6,-3.31999 -2.52001,-5.04 -6.24,-5.04 -3.12,0 -6.32,2.36001 -7.28,5.08 l -0.08,0 c 0,0 0.08,-0.72 0.08,-1.6 l 0,-3 -2.68,0 0,20.12"
         style="font-size:40px;font-weight:300;text-align:start;line-height:125%;writing-mode:lr-tb;text-anchor:start;font-family:Museo Sans;-inkscape-font-specification:Museo Sans Light"
         id="path3203"
         inkscape:connector-curvature="0" />
      <path
         d="m 201.29777,450.77362 c 0,6.08 4.76001,10.64 10.64,10.64 5.88,0 10.64,-4.56 10.64,-10.64 0,-5.95999 -4.76,-10.44 -10.64,-10.44 -5.87999,0 -10.64,4.48001 -10.64,10.44 m 2.8,0 c 0,-4.55999 3.52001,-7.96 7.84,-7.96 4.32,0 7.84,3.40001 7.84,7.96 0,4.68 -3.52,8.2 -7.84,8.2 -4.31999,0 -7.84,-3.52 -7.84,-8.2"
         style="font-size:40px;font-weight:300;text-align:start;line-height:125%;writing-mode:lr-tb;text-anchor:start;font-family:Museo Sans;-inkscape-font-specification:Museo Sans Light"
         id="path3205"
         inkscape:connector-curvature="0" />
      <path
         d="m 227.62152,460.93362 2.72,0 0,-9.64 c 0,-0.95999 0.08,-1.88 0.32,-2.72 0.92,-3.31999 3.88001,-5.68 7.32,-5.68 3.88,0 4.36,2.80001 4.36,5.96 l 0,12.08 2.72,0 0,-12.8 c 0,-4.95999 -1.76,-7.8 -6.72,-7.8 -4.75999,0 -7.32,3.24001 -8.04,5.08 l -0.08,0 c 0,0 0.08,-0.72 0.08,-1.6 l 0,-3 -2.68,0 0,20.12"
         style="font-size:40px;font-weight:300;text-align:start;line-height:125%;writing-mode:lr-tb;text-anchor:start;font-family:Museo Sans;-inkscape-font-specification:Museo Sans Light"
         id="path3207"
         inkscape:connector-curvature="0" />
      <path
         d="m 251.37152,460.93362 2.72,0 0,-20.12 -2.72,0 0,20.12"
         style="font-size:40px;font-weight:300;text-align:start;line-height:125%;writing-mode:lr-tb;text-anchor:start;font-family:Museo Sans;-inkscape-font-specification:Museo Sans Light"
         id="path3209"
         inkscape:connector-curvature="0"
         sodipodi:nodetypes="ccccc" />
      <path
         d="m 261.4284,453.61362 c 0,6.72 4.68,7.48 7,7.48 0.72,0 1.16,-0.08 1.16,-0.08 l 0,-2.44 c 0,0 -0.36,0.08 -0.92,0.08 -1.52,0 -4.52,-0.6 -4.52,-5.32 l 0,-10 5.04,0 0,-2.28 -5.04,0 0,-5.8 -2.68,0 0,5.8 -2.68,0 0,2.28 2.64,0 0,10.28"
         style="font-size:40px;font-weight:300;text-align:start;line-height:125%;writing-mode:lr-tb;text-anchor:start;font-family:Museo Sans;-inkscape-font-specification:Museo Sans Light"
         id="path3211"
         inkscape:connector-curvature="0" />
      <path
         d="m 272.6259,450.77362 c 0,6.08 4.76,10.64 10.64,10.64 5.87999,0 10.64,-4.56 10.64,-10.64 0,-5.95999 -4.76001,-10.44 -10.64,-10.44 -5.88,0 -10.64,4.48001 -10.64,10.44 m 2.8,0 c 0,-4.55999 3.52,-7.96 7.84,-7.96 4.31999,0 7.84,3.40001 7.84,7.96 0,4.68 -3.52001,8.2 -7.84,8.2 -4.32,0 -7.84,-3.52 -7.84,-8.2"
         style="font-size:40px;font-weight:300;text-align:start;line-height:125%;writing-mode:lr-tb;text-anchor:start;font-family:Museo Sans;-inkscape-font-specification:Museo Sans Light"
         id="path3213"
         inkscape:connector-curvature="0" />
      <path
         d="m 298.94965,460.93362 2.72,0 0,-8.48 c 0,-1.27999 0.16,-2.64 0.56,-3.92 0.88,-2.95999 3,-5.2 5.84,-5.2 0.52,0 1,0.08 1,0.08 l 0,-2.68 c 0,0 -0.52,-0.12 -1.08,-0.12 -3.16,0 -5.4,2.32001 -6.36,5.36 l -0.08,0 c 0,0 0.08,-0.72 0.08,-1.6 l 0,-3.56 -2.68,0 0,20.12"
         style="font-size:40px;font-weight:300;text-align:start;line-height:125%;writing-mode:lr-tb;text-anchor:start;font-family:Museo Sans;-inkscape-font-specification:Museo Sans Light"
         id="path3215"
         inkscape:connector-curvature="0" />
      <path
         d="m 311.0084,453.61362 13.28,0 0,7.32 5.08,0 0,-7.32 3.68,0 0,-4.28 -3.68,0 0,-16.8 -6.12,0 -12.24,17.92 0,3.16 m 5.44,-4.28 0,-0.08 6.56,-9.08 c 0.76,-1.07999 1.4,-2.6 1.4,-2.6 l 0.08,0 c 0,0 -0.2,1.56001 -0.2,2.96 l 0,8.8 -7.84,0"
         style="font-size:40px;font-weight:600;text-align:start;line-height:125%;writing-mode:lr-tb;text-anchor:start;fill:#ff0000;font-family:Museo Sans;-inkscape-font-specification:Museo Sans Semi-Bold"
         id="path3217"
         inkscape:connector-curvature="0" />
      <path
         d="m 347.29215,461.41362 c 7.75999,0 10.32,-6.56 10.32,-14.72 0,-8.15999 -2.56001,-14.64 -10.32,-14.64 -7.76,0 -10.28,6.48001 -10.28,14.64 0,8.16 2.52,14.72 10.28,14.72 m 0,-4.72 c -3.88,0 -5,-4.4 -5,-10 0,-5.51999 1.12,-9.88 5,-9.88 3.87999,0 5,4.36001 5,9.88 0,5.6 -1.12001,10 -5,10"
         style="font-size:40px;font-weight:600;text-align:start;line-height:125%;writing-mode:lr-tb;text-anchor:start;fill:#ff0000;font-family:Museo Sans;-inkscape-font-specification:Museo Sans Semi-Bold"
         id="path3219"
         inkscape:connector-curvature="0" />
      <path
         d="m 361.0084,453.61362 13.28,0 0,7.32 5.08,0 0,-7.32 3.68,0 0,-4.28 -3.68,0 0,-16.8 -6.12,0 -12.24,17.92 0,3.16 m 5.44,-4.28 0,-0.08 6.56,-9.08 c 0.76,-1.07999 1.4,-2.6 1.4,-2.6 l 0.08,0 c 0,0 -0.2,1.56001 -0.2,2.96 l 0,8.8 -7.84,0"
         style="font-size:40px;font-weight:600;text-align:start;line-height:125%;writing-mode:lr-tb;text-anchor:start;fill:#ff0000;font-family:Museo Sans;-inkscape-font-specification:Museo Sans Semi-Bold"
         id="path3221"
         inkscape:connector-curvature="0" />
    </g>
    <path
       d="m 244.38678,425.91382 c 1.99989,-1.99988 5.21162,-3.23685 8.2634,-3.23685 3.05172,0 6.26345,1.23697 8.26333,3.23685 l 1.59101,-1.35244 c -2.52196,-2.52196 -6.00605,-4.08179 -9.85441,-4.08179 -3.84843,0 -7.33246,1.5599 -9.8544,4.08185 z m 2.27022,2.50879 c 1.53377,-1.53379 3.65269,-2.48245 5.99311,-2.48245 2.34044,0 4.45934,0.94866 5.99312,2.48245 l -1.60869,1.37005 c -1.00721,-1.00722 -2.84745,-1.63016 -4.38436,-1.63016 -1.53692,0 -3.37714,0.62301 -4.38437,1.63016 z"
       id="radio-tower-icon"
       inkscape:connector-curvature="0"
       sodipodi:nodetypes="csccscccsccscc"
       style="fill:#ff0000" />
    <path
       style="fill:#ff0000;fill-opacity:1"
       d="m 251.2965,434.49611 0,-1.67411 1.40625,0 1.40625,0 0,1.67411 0,1.67411 -1.40625,0 -1.40625,0 0,-1.67411 z"
       id="path3223"
       inkscape:connector-curvature="0" />
  </g>
</svg>
